<?xml version="1.0" standalone="no"?>
<!DOCTYPE svg PUBLIC "-//W3C//DTD SVG 20010904//EN"
 "http://www.w3.org/TR/2001/REC-SVG-20010904/DTD/svg10.dtd">
<svg version="1.0" xmlns="http://www.w3.org/2000/svg"
 width="700.000000pt" height="700.000000pt" viewBox="0 0 700.000000 700.000000"
 preserveAspectRatio="xMidYMid meet">
<metadata>
Created by potrace 1.14, written by Peter Selinger 2001-2017
</metadata>
<g transform="translate(0.000000,700.000000) scale(0.100000,-0.100000)"
fill="#000000" stroke="none">
<path d="M2348 6715 c-1 -2 -32 -4 -68 -6 -162 -6 -332 -71 -466 -177 -245
-193 -361 -443 -348 -746 2 -54 6 -101 9 -105 2 -4 7 -22 10 -39 3 -18 16 -60
28 -95 94 -258 324 -473 592 -552 78 -23 109 -27 230 -28 77 0 167 5 200 12
81 16 202 59 247 88 21 13 42 23 48 23 5 0 10 4 10 9 0 5 8 12 18 15 29 10
139 125 188 198 25 37 61 102 79 145 l34 78 747 1 c608 0 747 -2 751 -13 3 -7
6 -136 7 -286 l1 -272 293 -1 292 -1 0 287 0 286 143 0 144 -1 -1 295 -1 295
-1187 0 c-652 0 -1188 2 -1190 5 -3 3 -12 26 -21 51 -45 121 -184 282 -322
374 -138 91 -255 137 -390 151 -27 3 -55 7 -62 9 -6 2 -13 2 -15 0z m69 -599
c56 -12 143 -77 170 -130 69 -133 41 -285 -71 -383 -73 -64 -174 -82 -275 -48
-88 29 -178 128 -196 215 -46 218 140 392 372 346z"/>
<path d="M2152 4368 c-74 -12 -129 -49 -169 -113 -15 -22 -133 -364 -273 -785
l-247 -747 1 -1026 c1 -1024 1 -1026 22 -1054 37 -50 58 -54 265 -54 295 1
286 -10 285 337 l-1 234 35 1 c19 0 677 1 1463 2 945 1 1427 -1 1428 -8 0 -5
2 -116 3 -245 2 -259 6 -278 61 -305 50 -23 415 -22 455 1 60 36 57 -16 57
1098 l0 1018 -242 734 c-134 403 -254 753 -268 777 -31 53 -84 101 -135 123
-34 15 -156 17 -1369 18 -732 1 -1349 -2 -1371 -6z m2660 -363 c35 -106 166
-509 267 -821 45 -137 81 -256 81 -262 0 -9 -385 -12 -1665 -12 l-1664 0 104
308 c57 169 144 429 195 577 50 149 92 275 95 282 3 10 285 12 1282 10 l1278
-2 27 -80z m-2390 -1577 c268 -124 268 -516 0 -644 -187 -89 -421 7 -487 201
-68 199 45 415 242 465 65 16 185 5 245 -22z m2460 0 c129 -60 208 -192 202
-338 -12 -281 -322 -434 -559 -275 -117 79 -173 230 -139 378 29 123 130 226
251 257 65 16 185 5 245 -22z"/>
</g>
</svg>
